<svg width="14" height="11" viewBox="0 0 14 11" fill="none" xmlns="http://www.w3.org/2000/svg">
<path d="M9.64645 10.3536C9.84171 10.5488 10.1583 10.5488 10.3536 10.3536L13.5355 7.17157C13.7308 6.97631 13.7308 6.65973 13.5355 6.46447C13.3403 6.2692 13.0237 6.2692 12.8284 6.46447L10 9.29289L7.17157 6.46447C6.97631 6.2692 6.65973 6.2692 6.46447 6.46447C6.2692 6.65973 6.2692 6.97631 6.46447 7.17157L9.64645 10.3536ZM9.5 1L9.5 10L10.5 10L10.5 1L9.5 1Z" fill="white"/>
<path d="M4.35355 0.646446C4.15829 0.451184 3.84171 0.451184 3.64645 0.646446L0.464466 3.82843C0.269204 4.02369 0.269204 4.34027 0.464466 4.53553C0.659729 4.7308 0.976311 4.7308 1.17157 4.53553L4 1.70711L6.82843 4.53553C7.02369 4.7308 7.34027 4.7308 7.53553 4.53553C7.7308 4.34027 7.7308 4.02369 7.53553 3.82843L4.35355 0.646446ZM4.5 10L4.5 1L3.5 1L3.5 10L4.5 10Z" fill="white"/>
</svg>
